TITLE ""
FILE "P1Q_t_1120-1129.mp3" MP3
  TRACK 01 AUDIO
    TITLE "P1Q_t_1120-1129_01"
    INDEX 01 00:00:00
  TRACK 02 AUDIO
    TITLE "P1Q_t_1120-1129_02"
    INDEX 01 00:01:23
  TRACK 03 AUDIO
    TITLE "P1Q_t_1120-1129_03"
    INDEX 01 00:01:43
  TRACK 04 AUDIO
    TITLE "P1Q_t_1120-1129_04"
    INDEX 01 00:05:10
  TRACK 05 AUDIO
    TITLE "P1Q_t_1120-1129_05"
    INDEX 01 00:05:29
  TRACK 06 AUDIO
    TITLE "P1Q_t_1120-1129_06"
    INDEX 01 00:09:58
  TRACK 07 AUDIO
    TITLE "P1Q_t_1120-1129_07"
    INDEX 01 00:10:30
  TRACK 08 AUDIO
    TITLE "P1Q_t_1120-1129_08"
    INDEX 01 00:11:36
  TRACK 09 AUDIO
    TITLE "P1Q_t_1120-1129_09"
    INDEX 01 00:11:57
  TRACK 10 AUDIO
    TITLE "P1Q_t_1120-1129_10"
    INDEX 01 00:15:22
  TRACK 11 AUDIO
    TITLE "P1Q_t_1120-1129_11"
    INDEX 01 00:15:41
  TRACK 12 AUDIO
    TITLE "P1Q_t_1120-1129_12"
    INDEX 01 00:20:19
  TRACK 13 AUDIO
    TITLE "P1Q_t_1120-1129_13"
    INDEX 01 00:20:64
  TRACK 14 AUDIO
    TITLE "P1Q_t_1120-1129_14"
    INDEX 01 00:21:73
  TRACK 15 AUDIO
    TITLE "P1Q_t_1120-1129_15"
    INDEX 01 00:22:18
  TRACK 16 AUDIO
    TITLE "P1Q_t_1120-1129_16"
    INDEX 01 00:23:66
  TRACK 17 AUDIO
    TITLE "P1Q_t_1120-1129_17"
    INDEX 01 00:24:11
  TRACK 18 AUDIO
    TITLE "P1Q_t_1120-1129_18"
    INDEX 01 00:28:63
  TRACK 19 AUDIO
    TITLE "P1Q_t_1120-1129_19"
    INDEX 01 00:29:34
  TRACK 20 AUDIO
    TITLE "P1Q_t_1120-1129_20"
    INDEX 01 00:30:43
  TRACK 21 AUDIO
    TITLE "P1Q_t_1120-1129_21"
    INDEX 01 00:30:64
  TRACK 22 AUDIO
    TITLE "P1Q_t_1120-1129_22"
    INDEX 01 00:33:67
  TRACK 23 AUDIO
    TITLE "P1Q_t_1120-1129_23"
    INDEX 01 00:34:13
  TRACK 24 AUDIO
    TITLE "P1Q_t_1120-1129_24"
    INDEX 01 00:37:45
  TRACK 25 AUDIO
    TITLE "P1Q_t_1120-1129_25"
    INDEX 01 00:38:17
  TRACK 26 AUDIO
    TITLE "P1Q_t_1120-1129_26"
    INDEX 01 00:39:32
  TRACK 27 AUDIO
    TITLE "P1Q_t_1120-1129_27"
    INDEX 01 00:39:53
  TRACK 28 AUDIO
    TITLE "P1Q_t_1120-1129_28"
    INDEX 01 00:42:54
  TRACK 29 AUDIO
    TITLE "P1Q_t_1120-1129_29"
    INDEX 01 00:42:73
  TRACK 30 AUDIO
    TITLE "P1Q_t_1120-1129_30"
    INDEX 01 00:48:05
  TRACK 31 AUDIO
    TITLE "P1Q_t_1120-1129_31"
    INDEX 01 00:48:52
  TRACK 32 AUDIO
    TITLE "P1Q_t_1120-1129_32"
    INDEX 01 00:49:66
  TRACK 33 AUDIO
    TITLE "P1Q_t_1120-1129_33"
    INDEX 01 00:50:12
  TRACK 34 AUDIO
    TITLE "P1Q_t_1120-1129_34"
    INDEX 01 00:51:61
  TRACK 35 AUDIO
    TITLE "P1Q_t_1120-1129_35"
    INDEX 01 00:52:07
  TRACK 36 AUDIO
    TITLE "P1Q_t_1120-1129_36"
    INDEX 01 00:56:01
  TRACK 37 AUDIO
    TITLE "P1Q_t_1120-1129_37"
    INDEX 01 00:56:46
  TRACK 38 AUDIO
    TITLE "P1Q_t_1120-1129_38"
    INDEX 01 00:57:75
  TRACK 39 AUDIO
    TITLE "P1Q_t_1120-1129_39"
    INDEX 01 00:58:19
  TRACK 40 AUDIO
    TITLE "P1Q_t_1120-1129_40"
    INDEX 01 01:01:18
  TRACK 41 AUDIO
    TITLE "P1Q_t_1120-1129_41"
    INDEX 01 01:01:39
  TRACK 42 AUDIO
    TITLE "P1Q_t_1120-1129_42"
    INDEX 01 01:06:31
  TRACK 43 AUDIO
    TITLE "P1Q_t_1120-1129_43"
    INDEX 01 01:07:03
  TRACK 44 AUDIO
    TITLE "P1Q_t_1120-1129_44"
    INDEX 01 01:08:36
  TRACK 45 AUDIO
    TITLE "P1Q_t_1120-1129_45"
    INDEX 01 01:08:55
  TRACK 46 AUDIO
    TITLE "P1Q_t_1120-1129_46"
    INDEX 01 01:12:02
  TRACK 47 AUDIO
    TITLE "P1Q_t_1120-1129_47"
    INDEX 01 01:12:22
  TRACK 48 AUDIO
    TITLE "P1Q_t_1120-1129_48"
    INDEX 01 01:17:17
  TRACK 49 AUDIO
    TITLE "P1Q_t_1120-1129_49"
    INDEX 01 01:17:64
  TRACK 50 AUDIO
    TITLE "P1Q_t_1120-1129_50"
    INDEX 01 01:18:59
  TRACK 51 AUDIO
    TITLE "P1Q_t_1120-1129_51"
    INDEX 01 01:19:04
  TRACK 52 AUDIO
    TITLE "P1Q_t_1120-1129_52"
    INDEX 01 01:22:10
  TRACK 53 AUDIO
    TITLE "P1Q_t_1120-1129_53"
    INDEX 01 01:22:32
  TRACK 54 AUDIO
    TITLE "P1Q_t_1120-1129_54"
    INDEX 01 01:26:61
  TRACK 55 AUDIO
    TITLE "P1Q_t_1120-1129_55"
    INDEX 01 01:27:29
  TRACK 56 AUDIO
    TITLE "P1Q_t_1120-1129_56"
    INDEX 01 01:28:48
  TRACK 57 AUDIO
    TITLE "P1Q_t_1120-1129_57"
    INDEX 01 01:28:70
  TRACK 58 AUDIO
    TITLE "P1Q_t_1120-1129_58"
    INDEX 01 01:31:40
  TRACK 59 AUDIO
    TITLE "P1Q_t_1120-1129_59"
    INDEX 01 01:31:60
  TRACK 60 AUDIO
    TITLE "P1Q_t_1120-1129_60"
    INDEX 01 01:34:72
